<svg xmlns="http://www.w3.org/2000/svg" version="1.1" xmlns:xlink="http://www.w3.org/1999/xlink" width="512" height="512" x="0" y="0" viewBox="0 0 24 24" style="enable-background:new 0 0 512 512" xml:space="preserve"><g><g fill-rule="evenodd" clip-rule="evenodd"><path fill="#111111" d="M12 2.75a9.25 9.25 0 1 0 .926 18.454.75.75 0 1 1 .148 1.493c-.353.035-.712.053-1.074.053-5.937 0-10.75-4.813-10.75-10.75S6.063 1.25 12 1.25 22.75 6.063 22.75 12c0 .362-.018.72-.053 1.074a.75.75 0 0 1-1.493-.148A9.25 9.25 0 0 0 12 2.75z" opacity="1" data-original="#111111"></path><g fill="#BBBBBB"><path d="M11.992 7.75c-.97 0-1.754.785-1.754 1.75 0 .966.784 1.75 1.754 1.75.969 0 1.753-.784 1.753-1.75 0-.965-.784-1.75-1.753-1.75zM8.738 9.5c0-1.796 1.458-3.25 3.254-3.25s3.253 1.454 3.253 3.25-1.458 3.25-3.253 3.25-3.254-1.454-3.254-3.25zm4.153 6.436c-1.763-.258-3.631.307-4.849 1.582a.75.75 0 0 1-1.084-1.036c1.587-1.663 3.957-2.352 6.15-2.03a.75.75 0 0 1-.217 1.484zM18.5 15.75a2.75 2.75 0 1 0 0 5.5 2.75 2.75 0 0 0 0-5.5zm-4.25 2.75a4.25 4.25 0 1 1 8.5 0 4.25 4.25 0 0 1-8.5 0z" fill="#BBBBBB" opacity="1" data-original="#bbbbbb"></path></g></g></g></svg>