<svg xmlns="http://www.w3.org/2000/svg" version="1.1" xmlns:xlink="http://www.w3.org/1999/xlink" width="512" height="512" x="0" y="0" viewBox="0 0 24 24" style="enable-background:new 0 0 512 512" xml:space="preserve"><g><g fill-rule="evenodd" clip-rule="evenodd"><path fill="#65008D" d="M12 2.75a9.25 9.25 0 1 0 0 18.5 9.25 9.25 0 0 0 0-18.5zM1.25 12C1.25 6.063 6.063 1.25 12 1.25S22.75 6.063 22.75 12 17.937 22.75 12 22.75 1.25 17.937 1.25 12z" opacity="1" data-original="#65008d"></path><path fill="#B288BD" d="M11.992 7.75c-.97 0-1.754.785-1.754 1.75 0 .966.784 1.75 1.754 1.75.969 0 1.753-.784 1.753-1.75 0-.965-.784-1.75-1.753-1.75zM8.738 9.5c0-1.796 1.458-3.25 3.254-3.25s3.253 1.454 3.253 3.25-1.458 3.25-3.253 3.25-3.254-1.454-3.254-3.25zm7.21 8.008c-2.046-2.22-5.855-2.138-7.906.01a.75.75 0 0 1-1.084-1.036c2.613-2.737 7.426-2.885 10.094.01a.75.75 0 0 1-1.103 1.016z" opacity="1" data-original="#b288bd"></path></g></g></svg>